ply
format ascii 1.0
comment created by gply, a Houdini tool.
comment converted from .[b]geo
comment for more information about Houdini, try:
comment www.sidefx.com
element vertex 10
property float x
property float y
property float z
property float w
property float P1
property float P2
property float P3
property float P4
element face 0
property list uint int vertex_indices
end_header
0.550742626 0 0.0056640245 4.59149455e-41 0.550742626 0 0.0056640245 1 
0.328134805 0.479997963 0.012018552 4.59149455e-41 0.328134805 0.479997963 0.012018552 1 
0.475973278 0.925270736 0.000435800554 4.59149455e-41 0.475973278 0.925270736 0.000435800554 1 
0.418000162 0.257745922 0.0110189728 4.59149455e-41 0.418000162 0.257745922 0.0110189728 1 
0.666669846 0.209765494 0.0151802348 4.59149455e-41 0.666669846 0.209765494 0.0151802348 1 
0.597680688 0.710513592 -0.0117983958 4.59149455e-41 0.597680688 0.710513592 -0.0117983958 1 
0.187883914 0.137374446 0.000882425287 4.59149455e-41 0.187883914 0.137374446 0.000882425287 1 
0.664197206 0.472534478 0.01540225 4.59149455e-41 0.664197206 0.472534478 0.01540225 1 
0.358382046 0.716764092 0.00382960797 4.59149455e-41 0.358382046 0.716764092 0.00382960797 1 
0.854505599 0.05372563 0.0131202312 4.59149455e-41 0.854505599 0.05372563 0.0131202312 1 
